<mxfile host="app.diagrams.net" agent="Mozilla/5.0 (Windows NT 10.0; Win64; x64) AppleWebKit/537.36 (KHTML, like Gecko) Chrome/127.0.0.0 Safari/537.36" version="24.7.7">
  <diagram name="Página-1" id="CcxzbwCyEYetWC0gsx-b">
    <mxGraphModel dx="1707" dy="468" grid="1" gridSize="10" guides="1" tooltips="1" connect="1" arrows="1" fold="1" page="1" pageScale="1" pageWidth="827" pageHeight="1169" math="0" shadow="0">
      <root>
        <mxCell id="0" />
        <mxCell id="1" parent="0" />
        <mxCell id="zFWtER79WyxMLkmNeTz1-13" style="rounded=0;orthogonalLoop=1;jettySize=auto;html=1;exitX=1;exitY=0.5;exitDx=0;exitDy=0;entryX=0;entryY=0.5;entryDx=0;entryDy=0;endArrow=none;endFill=0;" edge="1" parent="1" source="zFWtER79WyxMLkmNeTz1-1" target="zFWtER79WyxMLkmNeTz1-9">
          <mxGeometry relative="1" as="geometry" />
        </mxCell>
        <mxCell id="zFWtER79WyxMLkmNeTz1-1" value="Biblioteca" style="whiteSpace=wrap;html=1;align=center;" vertex="1" parent="1">
          <mxGeometry x="140" y="220" width="100" height="40" as="geometry" />
        </mxCell>
        <mxCell id="zFWtER79WyxMLkmNeTz1-3" value="Livro" style="whiteSpace=wrap;html=1;align=center;" vertex="1" parent="1">
          <mxGeometry x="160" y="100" width="100" height="40" as="geometry" />
        </mxCell>
        <mxCell id="zFWtER79WyxMLkmNeTz1-4" value="Alunos" style="whiteSpace=wrap;html=1;align=center;" vertex="1" parent="1">
          <mxGeometry x="280" y="40" width="100" height="40" as="geometry" />
        </mxCell>
        <mxCell id="zFWtER79WyxMLkmNeTz1-5" value="Professores" style="whiteSpace=wrap;html=1;align=center;" vertex="1" parent="1">
          <mxGeometry x="280" y="100" width="100" height="40" as="geometry" />
        </mxCell>
        <mxCell id="zFWtER79WyxMLkmNeTz1-7" value="Pessoa" style="whiteSpace=wrap;html=1;align=center;" vertex="1" parent="1">
          <mxGeometry x="160" y="40" width="100" height="40" as="geometry" />
        </mxCell>
        <mxCell id="zFWtER79WyxMLkmNeTz1-8" value="Empréstimo" style="whiteSpace=wrap;html=1;align=center;" vertex="1" parent="1">
          <mxGeometry x="40" y="100" width="100" height="40" as="geometry" />
        </mxCell>
        <mxCell id="zFWtER79WyxMLkmNeTz1-9" value="Gerencia" style="shape=rhombus;perimeter=rhombusPerimeter;whiteSpace=wrap;html=1;align=center;" vertex="1" parent="1">
          <mxGeometry x="320" y="215" width="110" height="50" as="geometry" />
        </mxCell>
        <mxCell id="zFWtER79WyxMLkmNeTz1-10" value="Solicita" style="shape=rhombus;perimeter=rhombusPerimeter;whiteSpace=wrap;html=1;align=center;" vertex="1" parent="1">
          <mxGeometry x="414" y="100" width="120" height="60" as="geometry" />
        </mxCell>
        <mxCell id="zFWtER79WyxMLkmNeTz1-11" value="Data de devolução" style="ellipse;whiteSpace=wrap;html=1;align=right;spacingRight=30;" vertex="1" parent="1">
          <mxGeometry x="80" y="190" width="30" height="20" as="geometry" />
        </mxCell>
        <mxCell id="zFWtER79WyxMLkmNeTz1-12" value="Data de empréstimo" style="ellipse;whiteSpace=wrap;html=1;align=right;spacingRight=30;" vertex="1" parent="1">
          <mxGeometry x="60" y="230" width="30" height="20" as="geometry" />
        </mxCell>
      </root>
    </mxGraphModel>
  </diagram>
</mxfile>
